<?xml version="1.0" encoding="UTF-8" standalone="no"?>
<svg
   width="32"
   height="32"
   version="1.1"
   id="svg14"
   sodipodi:docname="logo.svg"
   inkscape:version="1.1.2 (0a00cf5339, 2022-02-04, custom)"
   xmlns:inkscape="http://www.inkscape.org/namespaces/inkscape"
   xmlns:sodipodi="http://sodipodi.sourceforge.net/DTD/sodipodi-0.dtd"
   xmlns="http://www.w3.org/2000/svg"
   xmlns:svg="http://www.w3.org/2000/svg">
  <defs
     id="defs18" />
  <sodipodi:namedview
     id="namedview16"
     pagecolor="#ffffff"
     bordercolor="#666666"
     borderopacity="1.0"
     inkscape:pageshadow="2"
     inkscape:pageopacity="0.0"
     inkscape:pagecheckerboard="0"
     showgrid="false"
     inkscape:zoom="19.6875"
     inkscape:cx="15.974603"
     inkscape:cy="15.974603"
     inkscape:window-width="3440"
     inkscape:window-height="1352"
     inkscape:window-x="1920"
     inkscape:window-y="0"
     inkscape:window-maximized="1"
     inkscape:current-layer="svg14" />
  <rect
     width="32"
     height="32"
     x="0"
     y="0"
     style="opacity:0.001"
     id="rect2" />
  <circle
     cx="16"
     cy="17"
     r="14"
     style="opacity:0.1"
     id="circle4" />
  <circle
     style="fill:#2c3746;fill-opacity:1"
     cx="16"
     cy="16"
     r="14"
     id="circle6" />
  <path
     style="fill:#4285f4"
     d="M 8.0000001,10 V 21 H 24 Z"
     id="path8" />
  <path
     style="fill:#7baaf7"
     d="M 24,10 V 21 H 8.0000001 Z"
     id="path10" />
  <path
     d="M 16,2 A 14,14 0 0 0 2,16 14,14 0 0 0 2.0214844,16.585938 14,14 0 0 1 16,3 14,14 0 0 1 29.978516,16.414062 14,14 0 0 0 30,16 14,14 0 0 0 16,2 Z"
     style="opacity:0.1;fill:#ffffff"
     id="path12" />
</svg>
