<?xml version="1.0" encoding="UTF-8" standalone="no"?>
<svg
   width="12"
   height="12"
   version="1.1"
   viewBox="0 0 12 12"
   id="svg8"
   sodipodi:docname="minus_over.svg"
   inkscape:version="1.1.2 (0a00cf5339, 2022-02-04, custom)"
   xmlns:inkscape="http://www.inkscape.org/namespaces/inkscape"
   xmlns:sodipodi="http://sodipodi.sourceforge.net/DTD/sodipodi-0.dtd"
   xmlns="http://www.w3.org/2000/svg"
   xmlns:svg="http://www.w3.org/2000/svg">
  <defs
     id="defs12" />
  <sodipodi:namedview
     id="namedview10"
     pagecolor="#ffffff"
     bordercolor="#666666"
     borderopacity="1.0"
     inkscape:pageshadow="2"
     inkscape:pageopacity="0.0"
     inkscape:pagecheckerboard="0"
     showgrid="false"
     inkscape:zoom="52.5"
     inkscape:cx="5.9904762"
     inkscape:cy="6.0095238"
     inkscape:window-width="3440"
     inkscape:window-height="1352"
     inkscape:window-x="1920"
     inkscape:window-y="0"
     inkscape:window-maximized="1"
     inkscape:current-layer="svg8" />
  <rect
     width="12"
     height="12"
     x="0"
     y="0"
     style="fill:#2c3746;fill-opacity:0.89776349"
     id="rect2" />
  <path
     style="opacity:0.08;fill:#ffffff"
     d="M 2.4,0 C 1.0704,0 0,1.0704 0,2.4 V 9.6 C 0,10.9296 1.0704,12 2.4,12 H 9.6 C 10.9296,12 12,10.9296 12,9.6 V 2.4 C 12,1.0704 10.9296,0 9.6,0 Z"
     id="path4" />
  <path
     style="fill:#dfdfdf"
     d="M 3,3 H 4.4140625 L 6,4.5859375 7.5859375,3 H 9 V 4.4140625 L 7.4140625,6 9,7.5859375 V 9 H 7.5859375 L 6,7.4140625 4.4140625,9 H 3 V 7.5859375 L 4.5859375,6 3,4.4140625 Z"
     id="path6" />
</svg>
